<svg width="246" height="144" viewBox="0 0 246 144" fill="none" xmlns="http://www.w3.org/2000/svg">
<path d="M59.7724 108.922C59.7724 107.591 59.7722 106.367 59.7724 105.144C59.7726 103.918 59.7729 102.693 59.7734 101.467C59.7738 100.242 59.7742 99.016 59.7745 97.7904C59.7748 96.5649 59.7751 95.3393 59.7754 94.1138C59.7757 92.8882 59.7762 91.6627 59.7767 90.4371C59.7772 89.2115 59.7776 87.986 59.7781 86.7604C59.7785 85.5349 59.7809 84.3093 59.778 83.0838C59.7751 81.8615 59.7969 80.6386 59.7628 79.3852C59.5662 79.3135 59.3624 79.2637 59.1549 79.2365C56.8701 79.2292 54.5853 79.2302 52.3005 79.2395C52.1519 79.2544 52.0048 79.2813 51.8606 79.32C51.8013 79.5339 51.7574 79.7518 51.7292 79.972C51.7062 80.3349 51.7195 80.7003 51.7196 81.0646C51.7259 95.44 51.7314 109.815 51.7363 124.191C51.7364 124.578 51.7891 124.974 51.668 125.359C49.4078 124.737 42.873 119.442 39.4211 115.399C33.5968 108.579 29.9877 100.726 28.7574 91.842C25.9723 71.7318 36.1207 53.8913 51.7689 45.032C54.0711 43.7225 56.4854 42.6208 58.9831 41.7401C61.5123 40.8564 64.1093 40.1804 66.7483 39.7187C72.0112 38.8181 77.3904 38.8383 82.6464 39.7787C85.2502 40.2514 87.8114 40.9345 90.3048 41.8214C92.7985 42.7175 95.2057 43.838 97.4971 45.1691C99.8196 46.5124 102.027 48.0456 104.097 49.7529C106.14 51.4432 107.945 53.3776 109.794 55.3063C110.555 54.9095 111.116 54.3433 111.733 53.8587C112.38 53.3833 112.997 52.8691 113.581 52.3191C113.421 51.9744 113.294 51.6729 113.144 51.3838C111.436 48.0865 110.262 44.5382 109.669 40.8721C109.241 38.3217 109.105 35.7309 109.263 33.1497C110.154 19.0765 118.631 8.55497 129.022 3.52361C132.178 1.97686 135.557 0.936385 139.035 0.440335C139.656 0.353734 140.282 0.279322 140.907 0.249255C141.377 0.226696 141.591 0.375761 141.695 0.841746C141.874 1.64754 142.007 2.46514 142.125 3.28275C142.305 4.5267 142.457 5.7748 142.619 7.0213C142.798 8.39868 142.97 9.77696 143.156 11.1535C143.302 12.2356 143.469 13.3148 143.615 14.3967C143.864 16.2322 144.101 18.0691 144.348 19.9048C144.564 21.5113 144.789 23.1165 145.006 24.723C145.252 26.5586 145.489 28.3956 145.739 30.2308C145.891 31.3455 146.067 32.4568 146.217 33.5715C146.395 34.8825 146.552 36.1962 146.727 37.5073C146.877 38.6223 147.046 39.7346 147.196 40.8494C147.376 42.1933 147.541 43.5393 147.722 44.883C147.873 45.9978 148.044 47.1099 148.193 48.2247C148.374 49.5686 148.537 50.9148 148.717 52.2587C148.862 53.3409 149.026 54.4205 149.171 55.5027C149.356 56.8793 149.527 58.2579 149.712 59.6344C149.858 60.7165 150.022 61.7961 150.17 62.8779C150.453 64.9423 150.732 67.0073 151.007 69.0727C151.073 69.5659 150.941 69.77 150.472 69.8486C149.364 70.0343 148.259 70.2563 147.13 70.2719C145.64 70.2926 144.15 70.3372 142.661 70.3177C139.88 70.25 137.121 69.8004 134.462 68.9815C128.257 67.1721 122.677 63.6749 118.343 58.8795C118.097 58.6116 117.844 58.35 117.588 58.0921C117.546 58.0495 117.469 58.0415 117.328 57.9858C116.185 58.8589 115.039 59.7983 113.849 60.7697C113.978 61.0501 114.067 61.2917 114.193 61.5115C115.284 63.3674 116.257 65.2902 117.105 67.2684C118.465 70.4691 119.452 73.8152 120.049 77.241C120.396 79.1285 120.604 81.039 120.67 82.9569C120.686 83.651 120.806 84.345 120.79 85.0371C120.757 86.526 120.671 88.0138 120.594 89.5015C120.56 89.676 120.504 89.8458 120.429 90.0072C120.096 90.0028 119.764 89.9769 119.434 89.9298C117.84 89.599 116.216 89.5711 114.602 89.4395C114.271 89.4162 113.94 89.4107 113.609 89.4229C108.195 89.5653 103.045 90.7679 98.3067 93.4342C89.7365 98.2572 84.2909 105.462 82.0511 115.062C81.3458 118.085 81.1848 121.15 81.3347 124.24C81.3475 124.503 81.3982 124.765 81.4233 125.029C81.4447 125.254 81.4547 125.481 81.4706 125.719C81.3681 125.697 81.2789 125.705 81.2504 125.668C79.9926 124.004 70.3933 109.975 70.032 109.281C70.0593 108.946 70.3512 108.798 70.5524 108.593C74.568 104.506 78.5858 100.422 82.6059 96.3394C82.8773 96.0633 83.2081 95.8251 83.3473 95.3878C83.232 95.316 83.1076 95.2599 82.9775 95.221C82.7476 95.193 82.516 95.1812 82.2845 95.1856C79.6354 95.1868 76.9861 95.2105 74.3373 95.1813C74.0105 95.1669 73.6846 95.2261 73.3838 95.3546C73.083 95.4831 72.8148 95.6776 72.5993 95.9237C68.6317 100.057 64.6488 104.176 60.6507 108.28C60.4314 108.506 60.2688 108.821 59.7724 108.922Z" fill="white"/>
<path d="M6.79238 84.6849C6.46694 84.4234 6.08965 84.5002 5.73439 84.4979C4.34411 84.4887 2.95371 84.4987 1.56343 84.4897C1.27746 84.4878 0.96997 84.5667 0.669922 84.3265C0.703995 84.1753 0.747527 84.0264 0.80026 83.8807C2.35393 80.2329 9.1764 65.7588 9.67747 65.0395C10.5701 64.9088 20.0664 64.9161 20.9228 65.0567C20.9774 65.2315 21.0185 65.4103 21.0459 65.5914C21.0686 65.8544 21.0542 66.1207 21.0542 66.3856C21.0543 86.849 21.0535 107.312 21.0518 127.776C21.0517 128.2 21.1128 128.633 20.943 129.089C20.7185 129.126 20.4921 129.152 20.2648 129.164C16.0938 129.169 11.9228 129.169 7.75179 129.165C7.49536 129.165 7.23897 129.121 6.93303 129.093C6.91108 128.856 6.88314 128.665 6.8781 128.475C6.86936 128.144 6.87437 127.812 6.87437 127.481C6.8743 113.64 6.87331 99.7993 6.87142 85.9583C6.8713 85.5322 6.93438 85.0983 6.79238 84.6849Z" fill="white"/>
<path d="M130.593 98.9155C131.396 98.7657 133.556 98.7569 134.521 98.903C134.544 99.1393 134.59 99.3927 134.591 99.6463C134.598 101.004 134.592 102.362 134.597 103.719C134.598 103.974 134.626 104.228 134.648 104.595C134.78 104.52 134.905 104.432 135.019 104.332C135.323 103.982 135.605 103.613 135.911 103.266C139.006 99.7643 142.89 98.0105 147.564 98.0049C151.049 98.004 154.448 99.0814 157.296 101.089C160.144 103.097 162.301 105.938 163.472 109.22C164.434 111.927 164.621 114.713 164.253 117.544C163.646 122.224 161.342 125.93 157.679 128.822C154.938 130.986 151.792 132.051 148.306 132.155C145.434 132.24 142.711 131.692 140.167 130.337C138.417 129.387 136.841 128.147 135.506 126.669C135.305 126.451 135.097 126.239 134.89 126.027C134.869 126.006 134.828 126.005 134.731 125.972C134.674 126.068 134.632 126.172 134.608 126.281C134.588 126.578 134.595 126.876 134.595 127.174C134.595 132.108 134.594 137.042 134.594 141.976C134.593 142.368 134.577 142.76 134.569 143.131C133.842 143.324 131.948 143.362 130.625 143.219C130.574 143.045 130.535 142.867 130.51 142.687C130.488 142.424 130.502 142.157 130.502 141.893C130.502 127.985 130.503 114.077 130.505 100.169C130.505 99.7468 130.434 99.3127 130.593 98.9155ZM134.356 115.811C134.333 117.107 134.685 118.981 135.45 120.772C137.568 125.73 142.509 128.246 146.899 128.381C150.563 128.494 153.754 127.245 156.303 124.629C159.561 121.284 160.916 117.237 160.02 112.61C159.281 108.792 157.249 105.766 153.866 103.751C151.366 102.263 148.653 101.739 145.756 102.056C143.267 102.296 140.913 103.3 139.016 104.931C135.883 107.616 134.384 111.053 134.356 115.811Z" fill="white"/>
<path d="M120.791 131.324H116.881C116.834 131.097 116.802 130.867 116.785 130.636C116.775 129.41 116.783 128.185 116.777 126.959C116.776 126.673 116.744 126.386 116.728 126.116C116.421 126.045 116.329 126.247 116.197 126.377C115.536 127.026 114.912 127.718 114.21 128.319C111.282 130.829 107.874 132.046 104.019 132.165C94.924 132.445 88.7594 125.39 87.4405 119.234C86.4977 114.833 86.8388 110.581 89.1284 106.64C91.3545 102.807 94.5351 100.053 98.821 98.7262C101.909 97.7606 105.213 97.7234 108.321 98.6192C111.388 99.4776 113.852 101.258 115.868 103.693C116.078 103.947 116.304 104.187 116.525 104.431C116.54 104.447 116.582 104.439 116.615 104.443C116.834 104.323 116.774 104.105 116.775 103.922C116.782 102.597 116.777 101.272 116.781 99.9474C116.781 99.62 116.798 99.2927 116.808 98.9205C117.48 98.6966 118.141 98.8202 118.786 98.8061C119.463 98.7687 120.142 98.7841 120.817 98.8522C120.838 99.2186 120.872 99.54 120.872 99.8614C120.877 102.081 120.878 104.3 120.875 106.52C120.875 114.37 120.874 122.221 120.873 130.072C120.904 130.491 120.876 130.912 120.791 131.324ZM117.048 115.24C117.006 114.579 116.987 113.916 116.915 113.258C116.857 112.765 116.767 112.277 116.646 111.795C114.893 104.573 107.289 99.8794 99.3863 102.849C92.7024 105.36 89.0591 113.596 92.3439 120.673C95.0637 126.534 101.128 129.554 107.264 127.983C111.04 127.016 113.941 124.844 115.705 121.297C116.618 119.41 117.078 117.336 117.048 115.24Z" fill="white"/>
<path d="M245.545 109.107C245.545 114.47 245.545 119.832 245.545 125.195C245.573 126.056 245.477 126.917 245.258 127.75C244.806 129.252 243.868 130.561 242.591 131.47C241.314 132.38 239.771 132.839 238.204 132.775C235.098 132.639 232.342 130.412 231.667 127.346C231.519 126.599 231.452 125.839 231.466 125.078C231.453 115.379 231.45 105.679 231.458 95.98C231.458 94.7883 231.445 93.5963 231.462 92.4049C231.491 90.4337 232.133 88.6945 233.565 87.3137C235.54 85.4099 237.901 84.7842 240.521 85.5681C243.141 86.3521 244.765 88.1827 245.387 90.845C245.515 91.5284 245.566 92.2241 245.539 92.9189C245.55 98.3148 245.552 103.711 245.545 109.107ZM241.954 108.994C241.954 103.695 241.954 98.3959 241.954 93.0968C241.954 92.7657 241.963 92.4337 241.944 92.1035C241.9 91.223 241.519 90.3934 240.88 89.7863C240.241 89.1793 239.393 88.8415 238.511 88.8428C237.63 88.8442 236.783 89.1847 236.146 89.7937C235.509 90.4027 235.13 91.2335 235.089 92.1141C235.07 92.4444 235.077 92.7763 235.077 93.1074C235.077 103.706 235.077 114.304 235.077 124.902C235.077 125.233 235.083 125.564 235.084 125.895C235.093 127.57 236.577 129.194 238.518 129.194C239.405 129.188 240.256 128.842 240.895 128.226C241.533 127.609 241.91 126.771 241.947 125.884C241.962 125.554 241.954 125.222 241.954 124.891C241.955 119.592 241.955 114.293 241.954 108.994Z" fill="white"/>
<path d="M195.754 98.8078C197.134 98.7937 198.383 98.7938 199.687 98.8107C199.735 99.0476 199.768 99.2872 199.786 99.5282C199.796 100.588 199.791 101.648 199.792 102.707C199.792 106.151 199.773 109.596 199.799 113.04C199.813 114.926 199.885 116.813 199.968 118.698C200 119.426 200.088 120.15 200.231 120.865C200.862 123.996 202.7 126.179 205.627 127.381C208.288 128.495 211.276 128.545 213.972 127.52C215.217 127.094 216.346 126.388 217.274 125.455C218.201 124.522 218.901 123.389 219.321 122.142C219.649 121.132 219.827 120.08 219.85 119.019C219.944 117.234 220.012 115.446 220.021 113.659C220.044 109.155 220.029 104.651 220.029 100.147C220.029 99.7522 220.029 99.3572 220.029 98.9486C220.76 98.6746 221.457 98.8259 222.137 98.8065C222.807 98.7679 223.479 98.7818 224.146 98.8482C224.171 99.1639 224.208 99.42 224.208 99.6761C224.208 105.14 224.214 110.605 224.196 116.069C224.223 118.29 223.961 120.506 223.415 122.659C222.017 127.854 218.606 130.909 213.358 131.888C210.942 132.346 208.457 132.305 206.057 131.769C200.942 130.623 197.761 127.466 196.473 122.403C196.105 120.924 195.892 119.41 195.838 117.886C195.768 116.166 195.72 114.444 195.713 112.723C195.695 108.517 195.706 104.311 195.709 100.106C195.709 99.7137 195.736 99.3219 195.754 98.8078Z" fill="white"/>
<path d="M188.672 102.345C187.914 103.252 187.049 104.06 186.189 104.949C185.993 104.826 185.803 104.692 185.621 104.549C184.905 103.908 184.126 103.342 183.295 102.86C182.349 102.306 181.3 101.953 180.212 101.823C178.33 101.622 176.742 102.21 175.526 103.667C174.431 104.979 174.23 106.455 174.897 108.036C175.219 108.804 175.721 109.482 176.36 110.015C176.888 110.467 177.446 110.883 178.031 111.258C178.899 111.803 179.806 112.287 180.697 112.794C181.589 113.301 182.506 113.768 183.367 114.322C184.207 114.852 185.01 115.438 185.769 116.078C188.201 118.168 189.074 120.842 188.697 124.001C188.254 127.721 185.251 130.944 181.716 131.827C177.308 132.929 172.417 131.285 169.598 127.899C169.541 127.82 169.491 127.737 169.446 127.651C169.813 127.016 171.148 125.468 171.896 124.812C172.247 124.885 172.417 125.196 172.649 125.42C173.446 126.217 174.359 126.889 175.357 127.415C176.953 128.267 178.811 128.483 180.56 128.023C181.921 127.672 183.114 126.85 183.927 125.702C184.647 124.735 184.985 123.537 184.876 122.336C184.768 121.135 184.221 120.017 183.34 119.194C182.856 118.742 182.328 118.339 181.764 117.992C180.751 117.367 179.7 116.804 178.667 116.212C177.605 115.603 176.521 115.028 175.493 114.366C174.768 113.901 174.089 113.37 173.463 112.779C171.282 110.709 170.519 108.142 170.904 105.191C171.386 101.499 174.442 98.7067 177.9 98.1537C179.77 97.8377 181.691 98.0408 183.453 98.7408C185.36 99.4928 186.994 100.662 188.483 102.05C188.556 102.142 188.62 102.241 188.672 102.345Z" fill="white"/>
<path d="M190.068 78.6065C189.986 78.4275 189.921 78.241 189.874 78.0495C189.853 77.7857 189.845 77.5209 189.853 77.2563C189.852 69.4455 189.853 61.6346 189.856 53.8238C189.856 53.4026 189.773 52.9626 189.996 52.5841C190.326 52.3992 190.604 52.545 190.878 52.6402C193.181 53.4182 195.225 54.8137 196.79 56.6744C199.06 59.3726 200.102 62.4935 200.006 66.0205C199.912 68.7168 199.016 71.3238 197.432 73.5074C195.848 75.6909 193.648 77.3516 191.114 78.2766C190.806 78.3865 190.49 78.474 190.068 78.6065Z" fill="white"/>
<path d="M64.5277 113.957L75.1152 131.251C75.0013 131.59 74.7751 131.543 74.5908 131.541C73.169 131.531 71.7506 131.508 70.3298 131.377C67.8602 131.152 65.4124 130.731 63.0094 130.118C62.1455 129.898 61.2934 129.63 60.4399 129.37C60.2092 129.284 59.9838 129.185 59.7648 129.072C59.7648 128.76 59.7647 128.466 59.7648 128.171C59.7656 125.226 59.7834 122.28 59.7541 119.335C59.7347 119.042 59.784 118.748 59.8982 118.478C60.0123 118.207 60.1882 117.967 60.4117 117.776C61.6145 116.69 62.7752 115.557 63.955 114.445C64.0972 114.311 64.2525 114.19 64.5277 113.957Z" fill="white"/>
</svg>
